:SAMPLES-PER-SECOND 30
:FULLY-SPECIFIED
:DEGREES
428
root  62.0405 37.6686 12.1376 170.482 35.5668 171.454
RightUpLeg  -22.1072 -0.636445 -20.2232
RightLeg  11.4999 5.30104 -0.772009
RightFoot  -4.36887 -0.523868 8.09069
RightToes  -2.9104e-010 0 -3.6325e-017
Spine  6.36505 0.7901 -2.86157
Spine1  4.68839 2.52265 -7.97199
HEad  -29.1112 39.2376 -34.3262
LeftShoulder1  -0.791641 5.56148 -32.3171
LeftArm  1.65653 6.25782 -39.4932
LeftForeArm  26.1635 -39.9837 -7.71546
LeftHand  -0.0331347 5.10704 3.3681
RightShoulder  -1.17256 -6.68361 30.3561
RightArm  13.9226 -12.8279 40.0948
RightForeArm  14.8808 15.8941 4.57925
RightHand  0.0743289 3.04193 0.801981
LeftUpLeg  2.93482 -6.869 -10.1155
LeftLeg  23.3428 0.801532 0.725748
LeftFoot  -19.1371 0.605836 7.18597
LeftToes  -3.37426e-010 -1.91496e-010 5.23909e-011
429
root  63.2506 37.5049 11.7285 171.446 31.6311 171.219
RightUpLeg  -22.1693 -5.22974 -19.3113
RightLeg  7.34356 14.85 -2.9059
RightFoot  -5.66894 -0.443471 8.18261
RightToes  -2.9104e-010 0 -3.6325e-017
Spine  6.42364 0.554063 -2.42072
Spine1  4.32753 2.40714 -8.37955
HEad  -27.7312 38.1397 -33.9867
LeftShoulder1  -0.859249 5.73037 -32.4265
LeftArm  0.977891 6.20262 -39.4223
LeftForeArm  26.1699 -39.968 -7.7112
LeftHand  -0.0291254 5.22612 3.51934
RightShoulder  -1.22702 -6.8017 30.7006
RightArm  14.9176 -12.8566 40.1603
RightForeArm  14.3778 16.5651 4.58859
RightHand  0.0357608 3.11727 0.259457
LeftUpLeg  3.66451 -9.20796 -9.44673
LeftLeg  23.4337 -1.05361 -0.153414
LeftFoot  -20.512 0.669317 6.79733
LeftToes  -3.37426e-010 -1.91496e-010 5.23909e-011
430
root  64.5812 37.2811 11.2976 172.248 27.7423 171.261
RightUpLeg  -21.6302 -8.53587 -18.5934
RightLeg  5.16875 21.3279 -4.00624
RightFoot  -7.50122 -0.349884 9.05759
RightToes  -2.9104e-010 0 -3.6325e-017
Spine  6.4235 0.749887 -2.38069
Spine1  4.55964 2.46808 -7.55627
HEad  -16.5509 39.8308 -26.2814
LeftShoulder1  -0.902618 5.76465 -33.7408
LeftArm  0.754148 5.56952 -38.49
LeftForeArm  26.9116 -39.3219 -7.47003
LeftHand  -0.0494234 4.40501 3.40901
RightShoulder  -1.23438 -6.86345 30.2305
RightArm  15.7031 -13.2378 40.3009
RightForeArm  14.4022 17.8929 4.37743
RightHand  0.0886046 3.04227 0.989121
LeftUpLeg  4.62128 -11.3949 -8.16718
LeftLeg  23.7539 -3.07525 -1.13804
LeftFoot  -22.191 0.722549 6.20081
LeftToes  -3.37426e-010 -1.91496e-010 5.23909e-011
431
root  66.0022 37.0404 10.9058 173.051 23.8868 171.6
RightUpLeg  -20.9249 -7.71589 -18.7403
RightLeg  6.19817 21.2909 -3.54741
RightFoot  -7.35792 -0.449131 10.869
RightToes  -2.9104e-010 0 -3.6325e-017
Spine  6.71414 0.934418 -2.21991
Spine1  5.08124 2.51706 -6.70558
HEad  15.1546 48.0527 -0.560661
LeftShoulder1  -0.925062 5.80818 -33.9174
LeftArm  0.447853 5.5747 -38.3299
LeftForeArm  26.1656 -39.0623 -7.44084
LeftHand  -0.0362289 5.00916 3.89839
RightShoulder  -1.1809 -6.75181 29.8388
RightArm  16.1536 -13.1903 41.2377
RightForeArm  13.7803 18.5916 4.33568
RightHand  0.0643333 3.37014 0.617838
LeftUpLeg  5.51799 -13.8351 -6.33189
LeftLeg  24.072 -4.87761 -2.03537
LeftFoot  -23.8473 0.701605 5.09092
LeftToes  -3.37426e-010 -1.91496e-010 5.23909e-011
432
root  67.4644 36.8424 10.5433 174.187 19.8853 172.409
RightUpLeg  -20.7374 -2.47982 -19.6603
RightLeg  9.48504 17.4409 -2.08366
RightFoot  -1.59282 -1.35796 15.5148
RightToes  -2.9104e-010 0 -3.6325e-017
Spine  7.47626 1.0085 -0.881019
Spine1  4.97268 2.68709 -6.8685
HEad  8.64144 44.6306 -5.60167
LeftShoulder1  -0.759485 5.44977 -32.8953
LeftArm  -0.676937 6.31931 -38.9618
LeftForeArm  26.8838 -38.856 -7.33509
LeftHand  -0.0237182 5.48383 3.65259
RightShoulder  -1.27231 -6.94139 30.5163
RightArm  17.4976 -12.5619 41.6244
RightForeArm  12.4666 18.9698 4.43738
RightHand  -0.0113824 3.68584 -0.407069
LeftUpLeg  5.94694 -17.5963 -4.06489
LeftLeg  24.3688 -5.73196 -2.49742
LeftFoot  -24.9999 0.55615 3.39683
LeftToes  -3.37426e-010 -1.91496e-010 5.23909e-011
